<svg width="26" height="24" viewBox="0 0 26 24" fill="none" xmlns="http://www.w3.org/2000/svg">
<path d="M11.75 20.75V8.25H3V20.75H11.75ZM11.75 5.75V2C11.75 1.30965 12.3096 0.75 13 0.75H24.25C24.9404 0.75 25.5 1.30965 25.5 2V22C25.5 22.6904 24.9404 23.25 24.25 23.25H1.75C1.05965 23.25 0.5 22.6904 0.5 22V7C0.5 6.30965 1.05965 5.75 1.75 5.75H11.75ZM14.25 3.25V20.75H23V3.25H14.25ZM4.25 17H10.5V19.5H4.25V17ZM15.5 17H21.75V19.5H15.5V17ZM15.5 13.25H21.75V15.75H15.5V13.25ZM15.5 9.5H21.75V12H15.5V9.5ZM4.25 13.25H10.5V15.75H4.25V13.25Z" fill="black"/>
</svg>
