<svg width="23" height="23" viewBox="0 0 23 23" fill="none" xmlns="http://www.w3.org/2000/svg">
<path d="M3.66167 1.08941C5.20303 0.541438 6.99025 0.8843 8.22397 2.11801C9.45803 3.35208 9.80075 5.13996 9.2521 6.68163L22.808 20.2376L20.1564 22.8893L6.59908 9.3338C5.05772 9.88176 3.27049 9.53889 2.03678 8.3052C0.802716 7.07114 0.460004 5.28325 1.00864 3.74159L3.80454 6.53744C4.53678 7.26966 5.72397 7.26966 6.45619 6.53744C7.18843 5.8052 7.18843 4.61801 6.45619 3.88579L3.66167 1.08941ZM16.6209 3.44384L20.5984 1.23413L22.3661 3.0019L20.1564 6.97938L17.9466 7.42131L15.295 10.073L13.5273 8.3052L16.1789 5.65355L16.6209 3.44384ZM7.78203 13.1665L10.4336 15.8183L4.24649 22.0054C3.51425 22.7376 2.32707 22.7376 1.59484 22.0054C0.905679 21.3163 0.865141 20.224 1.47322 19.4875L1.59484 19.3538L7.78203 13.1665Z" fill="black"/>
</svg>
