<svg width="20" height="28" viewBox="0 0 20 28" fill="none" xmlns="http://www.w3.org/2000/svg">
<path d="M16.25 18.0567V26.6461C16.25 26.9912 15.9701 27.2712 15.625 27.2712C15.5118 27.2712 15.4006 27.2404 15.3035 27.1821L10 24L4.69656 27.1821C4.40057 27.3596 4.01666 27.2636 3.83906 26.9677C3.78079 26.8705 3.75 26.7594 3.75 26.6461V18.0567C1.46384 16.2241 0 13.408 0 10.25C0 4.72715 4.47715 0.25 10 0.25C15.5229 0.25 20 4.72715 20 10.25C20 13.408 18.5361 16.2241 16.25 18.0567ZM6.25 19.5231V23.3345L10 21.0845L13.75 23.3345V19.5231C12.592 19.9919 11.3261 20.25 10 20.25C8.67387 20.25 7.40804 19.9919 6.25 19.5231ZM10 17.75C14.1421 17.75 17.5 14.3921 17.5 10.25C17.5 6.10786 14.1421 2.75 10 2.75C5.85786 2.75 2.5 6.10786 2.5 10.25C2.5 14.3921 5.85786 17.75 10 17.75Z" fill="black"/>
</svg>
