<svg width="28" height="25" viewBox="0 0 28 25" fill="none" xmlns="http://www.w3.org/2000/svg">
<path d="M17.7561 0.50354C20.5175 0.50354 22.7561 2.74211 22.7561 5.50354C22.7561 6.41483 22.5123 7.26918 22.0864 8.00493L27.7561 8.00354V10.5035H25.2561V23.0035C25.2561 23.6939 24.6965 24.2535 24.0061 24.2535H4.0061C3.31575 24.2535 2.7561 23.6939 2.7561 23.0035V10.5035H0.256104V8.00354L5.92582 8.00493C5.4999 7.26918 5.2561 6.41483 5.2561 5.50354C5.2561 2.74211 7.49468 0.50354 10.2561 0.50354C11.7501 0.50354 13.0911 1.1588 14.0073 2.19761C14.9211 1.1588 16.2621 0.50354 17.7561 0.50354ZM12.7561 10.5035H5.2561V21.7535H12.7561V10.5035ZM22.7561 10.5035H15.2561V21.7535H22.7561V10.5035ZM10.2561 3.00354C8.87539 3.00354 7.7561 4.12283 7.7561 5.50354C7.7561 6.82149 8.77596 7.90124 10.0695 7.99668L10.2561 8.00354H12.7561V5.50354C12.7561 4.25148 11.8358 3.2144 10.6346 3.032L10.4427 3.01039L10.2561 3.00354ZM17.7561 3.00354C16.4381 3.00354 15.3584 4.02339 15.263 5.31696L15.2561 5.50354V8.00354H17.7561C19.074 8.00354 20.1538 6.98369 20.2493 5.69011L20.2561 5.50354C20.2561 4.12283 19.1369 3.00354 17.7561 3.00354Z" fill="black"/>
</svg>
