<svg width="20" height="27" viewBox="0 0 20 27" fill="none" xmlns="http://www.w3.org/2000/svg">
<path d="M10 6.74997C15.5229 6.74997 20 11.2271 20 16.75C20 22.2729 15.5229 26.75 10 26.75C4.47715 26.75 0 22.2729 0 16.75C0 11.2271 4.47715 6.74997 10 6.74997ZM10 9.24997C5.85786 9.24997 2.5 12.6079 2.5 16.75C2.5 20.8921 5.85786 24.25 10 24.25C14.1421 24.25 17.5 20.8921 17.5 16.75C17.5 12.6079 14.1421 9.24997 10 9.24997ZM10 11.125L11.6531 14.4746L15.3498 15.0117L12.6749 17.6191L13.3063 21.3007L10 19.5625L6.69371 21.3007L7.32515 17.6191L4.65031 15.0117L8.34687 14.4746L10 11.125ZM17.5 0.499968V4.24997L15.7958 5.67192C14.4131 4.94711 12.8781 4.47353 11.2514 4.31183L11.25 0.498718L17.5 0.499968ZM8.75 0.498718L8.74962 4.31172C7.123 4.47327 5.58807 4.94667 4.20551 5.67127L2.5 4.24997V0.499968L8.75 0.498718Z" fill="black"/>
</svg>
